<?xml version="1.0" encoding="utf-8"?>
<!-- Generator: Adobe Illustrator 18.0.0, SVG Export Plug-In . SVG Version: 6.00 Build 0)  -->
<!DOCTYPE svg PUBLIC "-//W3C//DTD SVG 1.1//EN" "http://www.w3.org/Graphics/SVG/1.1/DTD/svg11.dtd">
<svg version="1.1" id="Layer_1" xmlns="http://www.w3.org/2000/svg" xmlns:xlink="http://www.w3.org/1999/xlink" x="0px" y="0px"
	 viewBox="11 90.5 203.3 55" enable-background="new 11 90.5 203.3 55" xml:space="preserve">
<g>
	<path fill="#FFFFFF" d="M98.7,102.1h4.2c0.7,0,1.1,0.3,1.1,1v23c0,2.6-0.7,4.6-2.2,6c-1.5,1.4-3.5,2.1-6.1,2.1h-5.5
		c-2.6,0-4.7-0.7-6.1-2.1c-1.4-1.4-2.1-3.4-2.1-6.1v-22.9c0-0.7,0.3-1.1,1-1.1h4.3c0.7,0,1,0.4,1,1.1v22.6c0,1.1,0.2,1.8,0.7,2.3
		c0.5,0.5,1.2,0.7,2.2,0.7h3.5c1.1,0,1.8-0.2,2.3-0.7s0.7-1.2,0.7-2.3v-22.6C97.7,102.4,98,102.1,98.7,102.1z"/>
	<path fill="#FFFFFF" d="M98.7,102.1h4.2c0.7,0,1.1,0.3,1.1,1v23c0,2.6-0.7,4.6-2.2,6c-1.5,1.4-3.5,2.1-6.1,2.1h-5.5
		c-2.6,0-4.7-0.7-6.1-2.1c-1.4-1.4-2.1-3.4-2.1-6.1v-22.9c0-0.7,0.3-1.1,1-1.1h4.3c0.7,0,1,0.4,1,1.1v22.6c0,1.1,0.2,1.8,0.7,2.3
		c0.5,0.5,1.2,0.7,2.2,0.7h3.5c1.1,0,1.8-0.2,2.3-0.7s0.7-1.2,0.7-2.3v-22.6C97.7,102.4,98,102.1,98.7,102.1z"/>
	<path fill="#FFFFFF" d="M115.1,134.2h-4.3c-0.7,0-1-0.3-1-1v-33.1c0-0.7,0.3-1,1-1h4.3c0.7,0,1,0.4,1,1v33.1
		C116.1,133.9,115.8,134.2,115.1,134.2z M124.4,108.7h4.9c0.4,0,0.7,0.1,0.8,0.3c0.1,0.2,0.1,0.5-0.2,0.9l-6.6,11v0.2l7,11.8
		c0.2,0.3,0.2,0.6,0,0.9c-0.2,0.3-0.5,0.4-0.9,0.4H125c-0.6,0-1-0.1-1.2-0.2c-0.3-0.1-0.5-0.4-0.8-0.8l-6.3-11.2
		c-0.3-0.5-0.3-1.1,0-1.6l6-10.7C123.1,109.1,123.6,108.7,124.4,108.7z"/>
	<path fill="#FFFFFF" d="M133.6,104.4v-4.4c0-0.7,0.3-1,1-1h4.3c0.7,0,1,0.3,1,0.9v4.4c0,0.7-0.3,1-1,1h-4.3
		C134,105.4,133.6,105.1,133.6,104.4z M133.6,133.2v-23.4c0-0.7,0.3-1,1-1h4.3c0.7,0,1,0.3,1,1v23.4c0,0.4-0.1,0.7-0.2,0.8
		c-0.2,0.1-0.4,0.2-0.8,0.2h-4.3C134,134.2,133.6,133.9,133.6,133.2z"/>
	<path fill="#FFFFFF" d="M149.9,142.7h-3.2c-0.7,0-1-0.4-1-1.1v-3.3c0-0.7,0.3-1.1,1-1.1h1c2.1,0,3.5-0.3,4.3-0.9
		c0.8-0.6,1.3-1.7,1.7-3.4h-2.7c-0.6,0-1-0.4-1.3-1.1l-5.8-22c-0.2-0.7,0-1,0.8-1h4.5c0.7,0,1.1,0.3,1.3,1l4.3,18.5h0.2l4.3-18.5
		c0.1-0.7,0.5-1,1.3-1h4.2c0.8,0,1.2,0.4,1,1.1l-6.1,24.4c-0.7,2.8-1.9,4.9-3.4,6.3C154.6,142,152.5,142.7,149.9,142.7z"/>
	<path fill="#FFFFFF" d="M181.5,134.2H177c-2.6,0-4.7-0.7-6.1-2.1c-1.4-1.4-2.2-3.4-2.2-6.1v-9.2c0-2.6,0.7-4.7,2.2-6.1
		c1.4-1.4,3.5-2.1,6.1-2.1h4.5c2.6,0,4.6,0.7,6.1,2.1c1.4,1.4,2.2,3.4,2.2,6v9.2c0,2.6-0.7,4.6-2.2,6
		C186.1,133.5,184.1,134.2,181.5,134.2z M178,128.8h2.5c1.1,0,1.8-0.2,2.3-0.6c0.4-0.4,0.7-1.2,0.7-2.3v-8.8c0-1.1-0.2-1.8-0.7-2.3
		c-0.5-0.4-1.2-0.6-2.3-0.6H178c-1.1,0-1.8,0.2-2.3,0.6c-0.4,0.4-0.7,1.2-0.7,2.3v8.8c0,1.1,0.2,1.8,0.7,2.3
		C176.2,128.6,176.9,128.8,178,128.8z"/>
	<path fill="#FFFFFF" d="M198.8,134.2h-5c-0.9,0-1.1-0.3-0.7-1l6.3-12l-6.3-11.5c-0.3-0.7-0.1-1,0.6-1h5.1c0.8,0,1.3,0.3,1.5,1
		l3.2,7.6h0.2l2.8-7.6c0.2-0.7,0.8-1,1.5-1h5c0.9,0,1.1,0.3,0.7,1l-6,11.5l6.4,12c0.2,0.3,0.2,0.5,0.1,0.8c-0.1,0.2-0.3,0.3-0.7,0.3
		h-5.2c-0.7,0-1.2-0.3-1.5-1l-3.1-7.7h-0.2l-3.2,7.7C200.1,133.9,199.6,134.2,198.8,134.2z"/>
</g>
<path fill="#FFDB45" d="M66,145.5H16c-2.8,0-5-2.2-5-5v-45c0-2.8,2.2-5,5-5h50c2.8,0,5,2.2,5,5v45C71,143.3,68.7,145.5,66,145.5z"/>
<g>
	<path fill="#FFFFFF" d="M28.3,133.7h25.1v2.1H28.3V133.7z"/>
	<path fill="#FFFFFF" d="M47.1,102.3v17.6c0,3.1-2.3,5.4-5.4,5.4H40c-3.1,0-5.4-2.3-5.4-5.4v-17.6h-6.3v17.6
		c0,6.5,5.2,11.7,11.7,11.7h1.9c6.5,0,11.7-5.2,11.7-11.7v-17.6C53.6,102.3,47.1,102.3,47.1,102.3z"/>
</g>
</svg>
